<?xml version="1.0" encoding="utf-8"?>
<!-- Generator: Adobe Illustrator 16.0.0, SVG Export Plug-In . SVG Version: 6.00 Build 0)  -->
<!DOCTYPE svg PUBLIC "-//W3C//DTD SVG 1.1//EN" "http://www.w3.org/Graphics/SVG/1.1/DTD/svg11.dtd">
<svg version="1.1" id="Capa_1" xmlns="http://www.w3.org/2000/svg" xmlns:xlink="http://www.w3.org/1999/xlink" x="0px" y="0px"
	 width="64px" height="64px" viewBox="0 0 64 64" enable-background="new 0 0 64 64" xml:space="preserve">
<path fill="#BE955B" d="M46.999,15.825l4.729-4.471l-2.801-2.962l-5.169,4.889c-4.074-2.739-8.908-4.43-14.113-4.684V4.423h7.83
	V0.347H17.736v4.076h7.83v4.272C11.487,10.061,0.443,21.958,0.443,36.39c0,15.345,12.483,27.828,27.828,27.828
	c15.344,0,27.828-12.483,27.828-27.828C56.099,28.251,52.586,20.918,46.999,15.825z M28.271,58.963
	c-12.447,0-22.573-10.126-22.573-22.573s10.126-22.573,22.573-22.573S50.844,23.943,50.844,36.39S40.718,58.963,28.271,58.963z"/>
<path fill="#BE955B" d="M47.138,36.434c0.012-0.276,0.021-0.553,0.021-0.831l-0.076,0c-0.839-9.74-8.938-18.102-18.812-18.102
	v18.231v1.402v18.231c9.874,0,17.973-8.362,18.812-18.102l0.076,0.001C47.159,36.987,47.15,36.71,47.138,36.434z"/>
</svg>
