<?xml version="1.0" encoding="utf-8"?>
<!-- Generator: Adobe Illustrator 16.0.0, SVG Export Plug-In . SVG Version: 6.00 Build 0)  -->
<!DOCTYPE svg PUBLIC "-//W3C//DTD SVG 1.1//EN" "http://www.w3.org/Graphics/SVG/1.1/DTD/svg11.dtd">
<svg version="1.1" id="Capa_1" xmlns="http://www.w3.org/2000/svg" xmlns:xlink="http://www.w3.org/1999/xlink" x="0px" y="0px"
	 width="64px" height="64px" viewBox="0 0 64 64" enable-background="new 0 0 64 64" xml:space="preserve">
<path fill="#BE955B" d="M47.698,15.274l4.821-4.559l-2.856-3.02l-5.271,4.984C40.237,9.887,35.308,8.163,30,7.903V3.647h7.984V-0.51
	H17.859v4.157h7.984v4.357C11.486,9.396,0.226,21.529,0.226,36.243c0,15.647,12.729,28.377,28.376,28.377
	s28.376-12.729,28.376-28.377C56.978,27.944,53.396,20.466,47.698,15.274z M28.602,59.262c-12.692,0-23.018-10.326-23.018-23.019
	c0-12.691,10.326-23.017,23.018-23.017s23.018,10.326,23.018,23.017C51.619,48.936,41.293,59.262,28.602,59.262z"/>
<path fill="#BE955B" d="M47.862,35.441l-0.078,0.001c-0.855-9.932-9.114-18.458-19.182-18.458v18.587L9.855,35.441
	c0,10.465,8.347,19.837,18.746,20.139v0.014c0.061,0,0.118-0.009,0.178-0.01c0.112,0.002,0.223,0.01,0.335,0.01v-0.027
	c9.833-0.286,17.828-8.67,18.668-18.431l0.078,0.001c0-0.284-0.009-0.566-0.021-0.848C47.853,36.008,47.862,35.725,47.862,35.441z"
	/>
</svg>
