<?xml version="1.0" encoding="utf-8"?>
<!-- Generator: Adobe Illustrator 16.0.0, SVG Export Plug-In . SVG Version: 6.00 Build 0)  -->
<!DOCTYPE svg PUBLIC "-//W3C//DTD SVG 1.1//EN" "http://www.w3.org/Graphics/SVG/1.1/DTD/svg11.dtd">
<svg version="1.1" id="Capa_1" xmlns="http://www.w3.org/2000/svg" xmlns:xlink="http://www.w3.org/1999/xlink" x="0px" y="0px"
	 width="64px" height="64px" viewBox="0 0 64 64" enable-background="new 0 0 64 64" xml:space="preserve">
<rect x="27.096" y="16.799" fill="#BE955B" width="3.965" height="19.196"/>
<path fill="#BE955B" d="M47.941,15.994l4.598-4.348l-2.723-2.881l-5.029,4.754c-3.962-2.664-8.664-4.309-13.727-4.556V4.904h7.615
	V0.939H19.48v3.965h7.616v4.155c-13.694,1.328-24.435,12.9-24.435,26.936c0,14.924,12.142,27.066,27.066,27.066
	c14.923,0,27.065-12.142,27.065-27.066C56.792,28.08,53.376,20.947,47.941,15.994z M29.727,57.95
	c-12.106,0-21.956-9.849-21.956-21.955s9.849-21.955,21.956-21.955c12.106,0,21.954,9.849,21.954,21.955S41.833,57.95,29.727,57.95z
	"/>
</svg>
