<?xml version="1.0" encoding="utf-8"?>
<!-- Generator: Adobe Illustrator 16.0.0, SVG Export Plug-In . SVG Version: 6.00 Build 0)  -->
<!DOCTYPE svg PUBLIC "-//W3C//DTD SVG 1.1//EN" "http://www.w3.org/Graphics/SVG/1.1/DTD/svg11.dtd">
<svg version="1.1" id="Capa_1" xmlns="http://www.w3.org/2000/svg" xmlns:xlink="http://www.w3.org/1999/xlink" x="0px" y="0px"
	 width="64px" height="64px" viewBox="0 0 64 64" enable-background="new 0 0 64 64" xml:space="preserve">
<path fill="#BE955B" d="M52.751,14.975l4.624-4.372l-2.739-2.897l-5.055,4.78C45.597,9.809,40.87,8.155,35.78,7.906V3.825h7.656
	v-3.986h-19.3v3.986h7.657v4.178C18.025,9.338,7.226,20.973,7.226,35.085c0,15.005,12.208,27.213,27.213,27.213
	c15.005,0,27.212-12.208,27.212-27.213C61.651,27.126,58.216,19.956,52.751,14.975z M34.438,57.159
	c-12.172,0-22.074-9.902-22.074-22.074c0-12.171,9.902-22.074,22.074-22.074c12.171,0,22.074,9.902,22.074,22.074
	C56.512,47.257,46.61,57.159,34.438,57.159z"/>
<path fill="#BE955B" d="M52.909,35.942c0-10.201-8.269-19.327-18.47-19.327v19.2L52.909,35.942z"/>
</svg>
