<?xml version="1.0" encoding="utf-8"?>
<!-- Generator: Adobe Illustrator 16.0.0, SVG Export Plug-In . SVG Version: 6.00 Build 0)  -->
<!DOCTYPE svg PUBLIC "-//W3C//DTD SVG 1.1//EN" "http://www.w3.org/Graphics/SVG/1.1/DTD/svg11.dtd">
<svg version="1.1" id="Capa_1" xmlns="http://www.w3.org/2000/svg" xmlns:xlink="http://www.w3.org/1999/xlink" x="0px" y="0px"
	 width="64px" height="64px" viewBox="0 0 64 64" enable-background="new 0 0 64 64" xml:space="preserve">
<g>
	<path fill="#BE955B" d="M29.979,17.688V37.24h-4.061V17.688c-9.514,1.013-16.926,9.063-16.926,18.847
		c0,10.469,8.487,18.956,18.957,18.956c10.47,0,18.957-8.487,18.957-18.956C46.905,26.751,39.493,18.702,29.979,17.688z"/>
	<path fill="#BE955B" d="M29.979,17.579h-2.031c0.687,0,1.363,0.039,2.031,0.11V17.579z"/>
	<path fill="#BE955B" d="M25.917,17.579v0.11c0.667-0.071,1.344-0.11,2.03-0.11H25.917z"/>
</g>
<path fill="#BE955B" d="M46.604,15.79l4.71-4.454l-2.791-2.95l-5.15,4.869c-4.059-2.728-8.874-4.413-14.06-4.667V4.431h7.8V0.37
	H17.453v4.061h7.801v4.257C11.227,10.047,0.226,21.901,0.226,36.276C0.226,51.563,12.662,64,27.948,64
	C43.234,64,55.67,51.563,55.67,36.276C55.67,28.168,52.171,20.863,46.604,15.79z M27.948,58.765
	c-12.4,0-22.488-10.088-22.488-22.489c0-12.398,10.088-22.487,22.488-22.487c12.399,0,22.487,10.088,22.487,22.487
	C50.436,48.677,40.348,58.765,27.948,58.765z"/>
</svg>
