<?xml version="1.0" encoding="UTF-8" standalone="no"?>
<svg
   xmlns:dc="http://purl.org/dc/elements/1.1/"
   xmlns:cc="http://creativecommons.org/ns#"
   xmlns:rdf="http://www.w3.org/1999/02/22-rdf-syntax-ns#"
   xmlns:svg="http://www.w3.org/2000/svg"
   xmlns="http://www.w3.org/2000/svg"
   xmlns:sodipodi="http://sodipodi.sourceforge.net/DTD/sodipodi-0.dtd"
   xmlns:inkscape="http://www.inkscape.org/namespaces/inkscape"
   enable-background="new 0 0 24 24"
   height="24px"
   id="Layer_1"
   version="1.1"
   viewBox="0 0 24 24"
   width="24px"
   xml:space="preserve"
   sodipodi:docname="zip-color.svg"
   inkscape:version="0.92.5 (0.92.5+68)"><metadata
     id="metadata9"><rdf:RDF><cc:Work
         rdf:about=""><dc:format>image/svg+xml</dc:format><dc:type
           rdf:resource="http://purl.org/dc/dcmitype/StillImage" /></cc:Work></rdf:RDF></metadata><defs
     id="defs7" /><sodipodi:namedview
     pagecolor="#ffffff"
     bordercolor="#666666"
     borderopacity="1"
     objecttolerance="10"
     gridtolerance="10"
     guidetolerance="10"
     inkscape:pageopacity="0"
     inkscape:pageshadow="2"
     inkscape:window-width="1366"
     inkscape:window-height="713"
     id="namedview5"
     showgrid="false"
     inkscape:zoom="9.8333333"
     inkscape:cx="8.7278165"
     inkscape:cy="12"
     inkscape:window-x="0"
     inkscape:window-y="27"
     inkscape:window-maximized="1"
     inkscape:current-layer="Layer_1" /><path
     d="M23,4V2.1C23,1.5,22.5,1,21.9,1H9.8L9,0H1.1C0.5,0,0,0.5,0,1.1v21.8C0,23.5,0.5,24,1.1,24h21.8c0.6,0,1.1-0.5,1.1-1.1V5.1  C24,4.5,23.6,4.1,23,4z M22,22H2V2h6l3,4v1h-1v1h1v1h-1v1h1v1h-1v1h1v1h-1c-0.6,0-1,0.4-1,1v5c0,0.6,0.4,1,1,1h3c0.6,0,1-0.4,1-1v-5  c0-0.6-0.4-1-1-1h-1v-1h1v-1h-1v-1h1V9h-1V8h1V7h-1V6h10V22z M10,17v-3h3v3H10z M13,18v1h-3v-1H13z M22,4H12l-1.5-2H22V4z"
     id="path2" /><path
     style="fill:#ff7f2a;stroke-width:0.10169491"
     d="M 2.0338983,11.989831 V 2.0745763 H 5.0101412 7.9863841 L 9.4847174,4.0758104 C 10.874792,5.9324493 10.983051,6.1087956 10.983051,6.5164883 V 6.9559322 H 10.474576 9.9661017 v 0.559322 0.5593221 h 0.5084743 0.508475 V 8.5322034 8.9898305 H 10.474576 9.9661017 V 9.4983051 10.00678 h 0.5084743 0.508475 v 0.457627 0.457627 H 10.474576 9.9661017 v 0.559322 0.559322 h 0.5084743 0.508475 v 0.457627 0.457627 h -0.603549 c -1.4073121,0 -1.4303495,0.05717 -1.4303495,3.549487 0,1.836878 0.038334,2.830162 0.1157855,3.00015 0.2152577,0.472439 0.6228027,0.569007 2.401358,0.569007 0.924822,0 1.760982,-0.04845 1.945347,-0.11272 0.59136,-0.206149 0.622255,-0.381788 0.622255,-3.537576 v -2.846836 l -0.243255,-0.282802 c -0.218846,-0.254424 -0.32089,-0.286721 -1.016949,-0.32187 L 12,12.933702 V 12.48719 12.040678 h 0.508475 0.508474 V 11.481356 10.922034 H 12.508475 12 V 10.464407 10.00678 h 0.508475 0.508474 V 9.4983051 8.9898305 H 12.508475 12 V 8.5322034 8.0745763 h 0.508475 0.508474 V 7.5152542 6.9559322 H 12.508475 12 V 6.4983051 6.040678 h 4.983051 4.983051 v 7.932203 7.932204 H 12 2.0338983 Z"
     id="path3716"
     inkscape:connector-curvature="0" /><path
     style="fill:#c6a133;stroke-width:0.10169491;fill-opacity:1"
     d="M 2.0338983,11.989831 V 2.0745763 h 2.9511811 2.9511811 l 1.3847492,1.8559322 c 1.4088073,1.8881759 1.6620413,2.3099056 1.6620413,2.7679201 0,0.2412077 -0.03218,0.2575036 -0.508475,0.2575036 H 9.9661017 v 0.559322 0.5593221 h 0.5084743 0.508475 V 8.5322034 8.9898305 H 10.474576 9.9661017 V 9.4983051 10.00678 h 0.5084743 0.508475 v 0.457627 0.457627 H 10.474576 9.9661017 v 0.559322 0.559322 h 0.5084743 0.508475 v 0.457627 0.457627 h -0.744985 c -0.6691968,0 -0.7700661,0.02668 -0.9915256,0.262258 L 9,13.480449 8.9687936,16.430605 c -0.035008,3.309525 -0.029528,3.33868 0.6663886,3.545785 0.238304,0.07092 1.0400248,0.101161 2.1334458,0.08048 2.429376,-0.04596 2.206262,0.304872 2.245341,-3.530619 l 0.03092,-3.034514 -0.318381,-0.267901 C 13.482828,13.018791 13.296613,12.955607 12.932875,12.954544 12.119791,12.952167 12,12.88553 12,12.435597 v -0.394919 h 0.508475 0.508474 V 11.481356 10.922034 H 12.508475 12 V 10.464407 10.00678 h 0.508475 0.508474 V 9.4983051 8.9898305 H 12.508475 12 V 8.5322034 8.0745763 h 0.508475 0.508474 V 7.5152542 6.9559322 H 12.508475 12 V 6.4983051 6.040678 h 4.983051 4.983051 v 7.932203 7.932204 H 12 2.0338983 Z"
     id="path3718"
     inkscape:connector-curvature="0" /><path
     style="fill:#e6d46e;fill-opacity:1;stroke-width:0.10169491"
     d="M 11.310369,2.9898305 10.624815,2.0745763 h 5.645219 5.64522 v 0.9152542 0.9152542 h -4.959665 -4.959666 z"
     id="path4525"
     inkscape:connector-curvature="0" /><path
     style="fill:#e6d46e;fill-opacity:1;stroke-width:0.10169491"
     d="M 11.463728,3.1169492 C 11.135785,2.6834746 10.83357,2.2716102 10.792139,2.2016949 10.732248,2.1006271 11.864276,2.0745763 16.316032,2.0745763 h 5.599222 v 0.9152542 0.9152542 h -4.927633 -4.927633 z"
     id="path4527"
     inkscape:connector-curvature="0" /><path
     style="fill:#b38838;fill-opacity:1;stroke-width:0.10169491"
     d="M 11.389831,3.071543 C 11.054237,2.6167824 10.764407,2.2064264 10.745763,2.1596409 c -0.01864,-0.046785 2.486864,-0.085065 5.567796,-0.085065 h 5.601695 V 2.9898305 3.9050847 L 16.957627,3.9017329 12,3.898381 11.389831,3.0715435 Z"
     id="path4529"
     inkscape:connector-curvature="0" /><path
     style="fill:#ecde92;fill-opacity:1;stroke-width:0.10169491"
     d="m 10.016949,15.498305 v -1.423729 h 1.474576 1.474577 v 1.423729 1.423729 h -1.474577 -1.474576 z"
     id="path4531"
     inkscape:connector-curvature="0" /><path
     style="fill:#ecde92;fill-opacity:1;stroke-width:0.10169491"
     d="m 10.016949,18.498305 v -0.457627 h 1.474576 1.474577 v 0.457627 0.457627 h -1.474577 -1.474576 z"
     id="path4533"
     inkscape:connector-curvature="0" /><path
     style="fill:#b39f3c;fill-opacity:1;stroke-width:0.10169491"
     d="m 10.04985,15.498305 v -1.423729 h 1.423729 1.423729 v 1.423729 1.423729 H 11.473579 10.04985 Z"
     id="path822"
     inkscape:connector-curvature="0" /><path
     style="fill:#b39f3c;fill-opacity:1;stroke-width:0.10169491"
     d="m 10.791787,18.981953 c 0.436031,-0.01911 1.122471,-0.01899 1.525423,2.59e-4 0.402952,0.01925 0.0462,0.03489 -0.792783,0.03474 -0.838983,-1.42e-4 -1.168671,-0.01589 -0.73264,-0.035 z"
     id="path824"
     inkscape:connector-curvature="0" /><path
     style="fill:#b39f3c;fill-opacity:1;stroke-width:0.10169491"
     d="m 10.04985,18.498305 v -0.457627 h 1.423729 1.423729 v 0.457627 0.457627 H 11.473579 10.04985 Z"
     id="path826"
     inkscape:connector-curvature="0" /><path
     style="fill:#b38838;fill-opacity:1;stroke-width:0.10169491"
     d="m 10.04985,15.498305 v -1.423729 h 1.423729 1.423729 v 1.423729 1.423729 H 11.473579 10.04985 Z"
     id="path828"
     inkscape:connector-curvature="0" /><path
     style="fill:#b38838;fill-opacity:1;stroke-width:0.10169491"
     d="m 10.04985,18.498305 v -0.457627 h 1.423729 1.423729 v 0.457627 0.457627 H 11.473579 10.04985 Z"
     id="path830"
     inkscape:connector-curvature="0" /><path
     style="fill:#dccd33;fill-opacity:1;stroke-width:0.10169491"
     d="M 11.435422,3.0839581 C 11.106808,2.6360259 10.863584,2.2438935 10.894925,2.2125528 c 0.03134,-0.031341 2.508257,-0.082183 5.504259,-0.1129819 l 5.447277,-0.055999 v 0.9307565 0.9307564 l -4.90678,-0.00335 -4.90678,-0.00335 z"
     id="path834"
     inkscape:connector-curvature="0" /><path
     style="fill:#dccd33;fill-opacity:1;stroke-width:0.10169491"
     d="m 10.04985,15.498305 v -1.423729 h 1.423729 1.423729 v 1.423729 1.423729 H 11.473579 10.04985 Z"
     id="path836"
     inkscape:connector-curvature="0" /><path
     style="fill:#dccd33;fill-opacity:1;stroke-width:0.10169491"
     d="m 10.04985,18.498305 v -0.457627 h 1.423729 1.423729 v 0.457627 0.457627 H 11.473579 10.04985 Z"
     id="path838"
     inkscape:connector-curvature="0" /></svg>