<?xml version="1.0" ?><!DOCTYPE svg  PUBLIC '-//W3C//DTD SVG 1.1//EN'  'http://www.w3.org/Graphics/SVG/1.1/DTD/svg11.dtd'><svg enable-background="new 0 0 24 24" height="24px" id="Layer_1" version="1.1" viewBox="0 0 24 24" width="24px" xml:space="preserve" xmlns="http://www.w3.org/2000/svg" xmlns:xlink="http://www.w3.org/1999/xlink"><path d="M23,4V2.1C23,1.5,22.5,1,21.9,1H9.8L9,0H1.1C0.5,0,0,0.5,0,1.1v21.8C0,23.5,0.5,24,1.1,24h21.8c0.6,0,1.1-0.5,1.1-1.1V5.1  C24,4.5,23.6,4.1,23,4z M22,22H2V2h6l3,4v1h-1v1h1v1h-1v1h1v1h-1v1h1v1h-1c-0.6,0-1,0.4-1,1v5c0,0.6,0.4,1,1,1h3c0.6,0,1-0.4,1-1v-5  c0-0.6-0.4-1-1-1h-1v-1h1v-1h-1v-1h1V9h-1V8h1V7h-1V6h10V22z M10,17v-3h3v3H10z M13,18v1h-3v-1H13z M22,4H12l-1.5-2H22V4z"/></svg>